<svg width="127" height="56" viewBox="0 0 127 56" fill="none" xmlns="http://www.w3.org/2000/svg">
<path d="M109.061 44.3099C105.881 44.3099 103.038 43.5744 100.533 42.1033C98.0284 40.6323 96.0604 38.6841 94.6291 36.2589C93.2376 33.7939 92.5418 31.0705 92.5418 28.0887C92.5418 25.1068 93.2376 22.3834 94.6291 19.9184C96.0604 17.4534 98.0284 15.4854 100.533 14.0144C103.038 12.5433 105.881 11.8078 109.061 11.8078C112.282 11.8078 115.124 12.5433 117.589 14.0144C120.094 15.4854 122.042 17.4534 123.434 19.9184C124.865 22.3834 125.581 25.1068 125.581 28.0887C125.581 31.0705 124.865 33.7939 123.434 36.2589C122.042 38.6841 120.094 40.6323 117.589 42.1033C115.124 43.5744 112.282 44.3099 109.061 44.3099ZM109.061 36.9745C110.771 36.9745 112.262 36.577 113.534 35.7818C114.806 34.9469 115.78 33.8535 116.456 32.5018C117.172 31.15 117.53 29.679 117.53 28.0887C117.53 26.4586 117.172 24.9677 116.456 23.6159C115.78 22.2641 114.806 21.1907 113.534 20.3955C112.262 19.5606 110.771 19.1431 109.061 19.1431C107.352 19.1431 105.861 19.5606 104.588 20.3955C103.316 21.1907 102.322 22.2641 101.607 23.6159C100.931 24.9677 100.593 26.4586 100.593 28.0887C100.593 29.679 100.931 31.15 101.607 32.5018C102.322 33.8535 103.316 34.9469 104.588 35.7818C105.861 36.577 107.352 36.9745 109.061 36.9745Z" fill="#FD6B32"/>
<path d="M60.2477 48.2682V56H66.7275C70.3852 56 73.2677 55.0259 75.3748 53.0778C77.482 51.1694 79.1916 48.6448 80.5036 45.5039L94.2201 12.5247H84.6782L78.6549 30.2368C78.0983 31.8272 77.6609 33.4771 77.3429 35.1867C77.0248 33.4771 76.5875 31.8272 76.0309 30.2368L70.0075 12.5247H60.2867L72.5719 42.1046L72.1545 43.4166C71.7171 44.7684 71.0015 45.8816 70.0075 46.7563C69.0136 47.6707 68.2206 48.2682 66.67 48.2682H60.2477Z" fill="#FD6B32"/>
<path d="M50.7543 43.5349V0H58.8053V43.5349H50.7543Z" fill="#FD6B32"/>
<path d="M37.9415 43.5349V0H45.9925V43.5349H37.9415Z" fill="#FD6B32"/>
<path d="M15.3267 44.31C12.5039 44.31 9.91959 43.5943 7.57388 42.1631C5.26792 40.692 3.41918 38.7439 2.02765 36.3186C0.675884 33.8537 0 31.1302 0 28.1484C0 25.922 0.397579 23.8347 1.19274 21.8865C1.98789 19.8986 3.08124 18.1692 4.47276 16.6981C5.86429 15.1873 7.47448 14.0145 9.30335 13.1796C11.172 12.3049 13.1797 11.8675 15.3267 11.8675C18.0302 11.8675 20.1374 12.3844 21.6482 13.4181C23.159 14.4121 24.3318 15.7439 25.1667 17.4138V12.5236H33.1581V43.5347H25.3457V38.4656C24.5107 40.2149 23.318 41.6263 21.7674 42.6998C20.2566 43.7732 18.1097 44.31 15.3267 44.31ZM16.6387 37.0343C18.4278 37.0343 19.9585 36.6367 21.2307 35.8416C22.5427 35.0066 23.5565 33.9133 24.2722 32.5615C24.9878 31.2098 25.3457 29.7387 25.3457 28.1484C25.3457 26.5183 24.9878 25.0274 24.2722 23.6756C23.5565 22.3239 22.5427 21.2305 21.2307 20.3956C19.9585 19.5607 18.4278 19.1432 16.6387 19.1432C14.9291 19.1432 13.4183 19.5607 12.1063 20.3956C10.834 21.1908 9.84008 22.2642 9.12443 23.616C8.40879 24.9678 8.05097 26.4587 8.05097 28.0888C8.05097 29.6393 8.40879 31.1104 9.12443 32.5019C9.84008 33.8537 10.834 34.947 12.1063 35.7819C13.4183 36.6168 14.9291 37.0343 16.6387 37.0343Z" fill="#FD6B32"/>
<path d="M123.111 10.9526C122.485 10.9526 121.909 10.8007 121.384 10.4969C120.86 10.1838 120.441 9.76951 120.128 9.25391C119.815 8.7291 119.658 8.14906 119.658 7.51377C119.658 6.87848 119.815 6.30304 120.128 5.78744C120.441 5.26264 120.86 4.84832 121.384 4.54448C121.909 4.24065 122.485 4.08873 123.111 4.08873C123.746 4.08873 124.326 4.24065 124.851 4.54448C125.376 4.84832 125.795 5.26264 126.108 5.78744C126.421 6.30304 126.577 6.87848 126.577 7.51377C126.577 8.14906 126.421 8.7291 126.108 9.25391C125.795 9.76951 125.376 10.1838 124.851 10.4969C124.326 10.8007 123.746 10.9526 123.111 10.9526ZM123.111 10.0273C123.571 10.0273 123.99 9.91682 124.367 9.69585C124.745 9.46567 125.044 9.16184 125.265 8.78435C125.486 8.39765 125.597 7.97412 125.597 7.51377C125.597 7.05341 125.486 6.63449 125.265 6.257C125.044 5.87951 124.745 5.58028 124.367 5.35931C123.99 5.12913 123.571 5.01404 123.111 5.01404C122.659 5.01404 122.245 5.12913 121.868 5.35931C121.49 5.58028 121.191 5.87951 120.97 6.257C120.749 6.63449 120.639 7.05341 120.639 7.51377C120.639 7.97412 120.749 8.39765 120.97 8.78435C121.191 9.16184 121.49 9.46567 121.868 9.69585C122.245 9.91682 122.659 10.0273 123.111 10.0273ZM121.785 9.29534V5.71839H123.221C123.626 5.71839 123.944 5.81046 124.174 5.9946C124.404 6.17874 124.519 6.44575 124.519 6.79562C124.519 7.08104 124.441 7.31121 124.285 7.48615C124.137 7.66108 123.93 7.78077 123.663 7.84522L124.657 9.29534H123.774L123 8.16287C122.963 8.11683 122.936 8.0708 122.917 8.02476C122.908 7.96952 122.894 7.92809 122.876 7.90047H122.544V9.29534H121.785ZM122.544 7.23756H123.124C123.52 7.23756 123.718 7.09485 123.718 6.80943C123.718 6.52401 123.52 6.3813 123.124 6.3813H122.544V7.23756Z" fill="#FD6B32"/>
</svg>
