<svg width="134" height="63" viewBox="0 0 134 63" fill="none" xmlns="http://www.w3.org/2000/svg">
<g clip-path="url(#clip0_1_113)">
<path d="M123.977 -0.000610352L59.9945 12.0837L2.55806 6.52823L0 48.0857L20.6397 59.4354L85.3692 46.1512L128.189 45.5697L134 34.171L123.977 -0.000610352Z" fill="#2A2AD7"/>
<path d="M102.802 18.5934C102.976 18.5747 103.14 18.5042 103.272 18.3912C103.405 18.2781 103.5 18.1278 103.546 17.9598L103.946 13.8246C99.4506 14.1307 93.6211 14.8347 89.286 15.1377C89.3106 15.4866 89.1999 18.872 89.286 21.8043L102.814 18.5934H102.802Z" fill="white"/>
<path d="M105.185 33.4885C105.142 33.1304 104.905 32.8763 104.641 32.9008C102.523 33.1059 89.8583 32.4753 89.8583 32.4753C89.9382 36.479 89.9966 39.1389 89.9966 39.1389C94.8299 38.6736 101.031 38.0645 105.677 37.6084L105.185 33.4885Z" fill="white"/>
<path d="M46.9368 28.7313C46.0145 25.9551 45.1197 23.1728 44.2035 20.3752L35.939 20.1915C35.075 20.1731 34.8844 20.6047 34.8444 20.7486C33.4393 27.2162 31.4132 36.1325 29.9251 42.9124L34.9859 41.8778C35.4993 39.0097 36.1481 35.4499 36.4832 33.4971C38.328 33.4726 39.5117 33.4328 41.295 33.4696C41.295 33.4696 43.893 41.8716 44.6432 44.7948C44.6743 44.9151 44.7481 45.0201 44.851 45.0905C44.9538 45.1608 45.0788 45.1917 45.2028 45.1774L52.1452 43.8888C50.8354 39.8545 48.2743 32.7656 46.9368 28.7313Z" fill="white"/>
<path d="M81.7689 15.9715C81.6518 15.9828 81.5423 16.0341 81.4588 16.1167C81.3753 16.1992 81.323 16.308 81.3108 16.4245C81.2647 16.8714 78.1994 34.1775 78.184 34.2877C78.1594 34.1775 74.5867 16.7398 74.5191 16.2959C74.5007 16.18 74.4426 16.074 74.3546 15.9958C74.2666 15.9177 74.1542 15.8723 74.0364 15.8674L71.1401 16.6938C71.7058 19.2099 76.413 40.2625 76.413 40.2625L81.9257 39.7636C81.9257 39.7636 85.975 18.0467 86.4085 15.5062L81.7689 15.9715Z" fill="white"/>
<path d="M23.37 43.7226C23.3876 43.8805 23.343 44.0389 23.2454 44.1646C23.1479 44.2902 23.0052 44.3732 22.8473 44.396L13.6789 46.1193C13.1962 42.0484 12.529 35.6542 11.9356 29.8049C11.9356 29.8049 27.7605 27.5031 29.9435 27.0807C30.1224 28.2281 30.2323 29.3851 30.2725 30.5456C25.8819 31.6169 25.6606 31.7057 22.1463 32.3148C22.6352 36.4868 22.8596 39.517 23.37 43.7226Z" fill="white"/>
<path d="M114.919 21.9594C114.919 21.9594 111.38 18.216 117.923 12.385C118.215 12.1187 117.948 11.9688 117.84 11.9228L111.961 9.6731C111.961 9.6731 106.928 13.7196 107.1 19.4189C107.174 21.938 107.457 23.7715 112.509 28.3199C114.522 30.132 112.853 32.9786 109.806 36.6455L116.164 40.9307C116.733 40.2298 120.65 33.7622 120.65 30.0126C120.644 25.8345 118.529 25.9386 114.919 21.9594Z" fill="white"/>
<path d="M30.6322 15.951L20.0218 17.3468L10.798 18.5712C10.4598 18.6171 10.4167 18.7762 10.4198 18.8772L11.3729 25.7275L31.075 21.7269L30.6322 15.951Z" fill="white"/>
<path d="M102.358 23.5904L89.8624 24.4144L90.2011 29.5057L102.697 28.6817L102.358 23.5904Z" fill="white"/>
<path d="M67.1889 17.8387L62.8845 19.0417L63.3119 21.3404C63.6778 23.3208 64.2066 26.2653 64.5971 28.7477C65.335 33.4614 65.7931 36.3999 62.2173 37.0396C59.1642 37.5783 58.2603 35.2031 57.2549 29.9047C56.4648 25.748 55.8068 22.0903 55.6008 21.1078C55.5742 20.9796 55.5034 20.8647 55.4006 20.783C55.2979 20.7014 55.1696 20.6582 55.0382 20.6609C54.7707 20.6609 50.2602 20.5293 50.2602 20.5293C50.2602 20.5293 51.7361 28.007 52.2864 30.9117C53.092 35.1265 53.6177 42.5859 62.7154 40.7585C65.7594 40.1666 68.5787 38.7458 70.86 36.6539L67.1889 17.8387Z" fill="white"/>
</g>
<defs>
<clipPath id="clip0_1_113">
<rect width="134" height="62.8642" fill="white"/>
</clipPath>
</defs>
</svg>
