<svg width="241" height="31" viewBox="0 0 241 31" fill="none" xmlns="http://www.w3.org/2000/svg">
<path d="M231.923 20.6105C234.023 20.6105 235.231 19.858 235.544 18.3531C235.575 18.1336 235.591 17.9298 235.591 17.7417C235.591 16.1426 234.588 14.8101 232.581 13.7441C232.142 13.4932 231.437 13.164 230.465 12.7564C228.113 11.7218 226.561 10.7655 225.808 9.88758C224.993 8.94697 224.585 7.83391 224.585 6.54841C224.585 3.88336 226.043 2.08052 228.959 1.13992C230.182 0.732319 231.546 0.52852 233.051 0.52852C235.497 0.52852 237.41 0.967472 238.789 1.84537C238.789 0.904765 239.072 0.387429 239.636 0.293368C239.761 0.262015 239.887 0.246338 240.012 0.246338V6.12514H238.507C238.382 3.27196 236.83 1.8297 233.851 1.79834C231.844 1.79834 230.606 2.45677 230.135 3.77362C230.041 4.08716 229.994 4.40069 229.994 4.71423C229.994 6.06243 230.935 7.20684 232.816 8.14745C233.192 8.36692 233.82 8.66478 234.698 9.04103C237.143 10.1384 238.774 11.1417 239.589 12.051C240.53 13.117 241 14.3868 241 15.8604C241 18.5882 239.589 20.4224 236.767 21.363C235.607 21.7392 234.306 21.9274 232.863 21.9274C230.104 21.9274 227.784 21.4414 225.902 20.4694C225.902 21.2846 225.698 21.7549 225.291 21.8803C225.103 21.9117 224.883 21.9274 224.632 21.9274V14.7787H226.232C226.294 18.6352 228.191 20.5792 231.923 20.6105Z" fill="black"/>
<path d="M205.772 28.9828C206.085 28.9828 206.415 28.9201 206.76 28.7947C208.139 28.293 209.582 26.1767 211.087 22.4456L201.915 2.41063H199.94V1.23486H210.993V2.41063H208.124L213.815 15.5321L218.941 2.41063H215.414V1.23486H222.704C222.704 1.39163 222.688 1.5484 222.657 1.70517C222.594 2.17547 222.218 2.41063 221.528 2.41063C221.026 2.47333 220.509 2.92796 219.976 3.77451L212.921 22.0693C212.325 23.637 211.698 24.9696 211.04 26.0669C209.315 29.1082 207.136 30.6289 204.502 30.6289C203.342 30.6289 202.323 30.3937 201.445 29.9234C200.191 29.265 199.564 28.4184 199.564 27.3838C199.564 27.1643 199.595 26.9292 199.658 26.6783C199.971 25.7064 200.692 25.2204 201.821 25.2204C202.354 25.2204 202.825 25.3615 203.232 25.6437C203.577 25.9258 203.969 26.6156 204.408 27.713C204.753 28.5595 205.208 28.9828 205.772 28.9828Z" fill="black"/>
<path d="M194.719 21.9277C192.211 21.7709 190.627 20.3443 189.969 17.6479C189.812 18.0868 189.608 18.5101 189.357 18.9177C188.103 20.9243 186.143 21.9277 183.478 21.9277C182.6 21.9277 181.8 21.8179 181.079 21.5984C178.634 20.8146 177.411 19.0274 177.411 16.237C177.442 12.1296 181.487 9.9976 189.545 9.84083V6.78386C189.545 5.8746 189.483 5.09076 189.357 4.43233C189.044 2.64518 188.15 1.7516 186.676 1.7516C186.237 1.7516 185.845 1.82999 185.5 1.98675C184.967 2.30029 184.528 3.08413 184.183 4.33827C184.058 4.77722 183.964 5.09076 183.901 5.27888C183.431 6.59573 182.522 7.25416 181.173 7.25416C180.86 7.25416 180.562 7.20713 180.28 7.11307C179.12 6.79953 178.539 6.03137 178.539 4.80858C178.539 4.27557 178.681 3.77391 178.963 3.3036C180.06 1.45374 182.741 0.528808 187.005 0.528808C188.103 0.528808 189.122 0.638546 190.063 0.858021C193.7 1.76728 195.519 4.1815 195.519 8.10071V17.9301C195.519 19.435 195.863 20.2189 196.553 20.2816C197.463 20.2502 198.011 19.1529 198.199 16.9895L199.422 17.0365C199.328 18.0085 199.187 18.808 198.999 19.435C198.435 21.0968 197.008 21.9277 194.719 21.9277ZM185.924 19.9053C186.143 19.9053 186.394 19.8583 186.676 19.7643C187.993 19.2626 188.95 17.9144 189.545 15.7196V11.1577C188.134 11.2204 186.974 11.3928 186.065 11.675C184.372 12.3021 183.525 13.6503 183.525 15.7196C183.556 18.4474 184.356 19.8426 185.924 19.9053Z" fill="black"/>
<path d="M154.176 2.45766H151.354L155.916 16.1435L159.021 5.93791L157.421 1.23486H166.546V2.45766H163.724L168.333 16.1905L172.707 2.45766H169.791V1.23486H176.47C176.47 1.39163 176.454 1.5484 176.423 1.70517C176.392 2.20683 176.094 2.45766 175.529 2.45766C174.902 2.52036 174.306 2.97499 173.742 3.82154L167.863 21.6931H166.311C165.684 21.6931 165.198 21.5834 164.853 21.3639C164.445 21.0817 163.928 20.047 163.301 18.2599L159.82 8.10131L155.446 21.6931H153.894C153.424 21.6931 153.032 21.6304 152.718 21.505C152.06 21.2228 151.401 20.1411 150.743 18.2599L145.287 2.45766H143.311V1.23486H154.176V2.45766Z" fill="black"/>
<path d="M125.525 29.7484C125.121 29.7484 124.705 29.7105 124.276 29.6347C123.872 29.5842 123.468 29.4832 123.063 29.3318V26.6806C123.316 26.7058 123.632 26.7437 124.01 26.7942C124.414 26.87 124.818 26.9078 125.222 26.9078C126.46 26.9078 127.407 26.6427 128.063 26.1125C128.72 25.6075 129.364 24.6228 129.995 23.1583L131.283 20.1284L131.207 22.6281L122.609 1.11572H125.677L132.722 18.8786H131.927L138.934 1.11572H142.077L132.798 23.9915C132.394 24.9763 131.876 25.9105 131.245 26.7942C130.639 27.6779 129.869 28.3849 128.934 28.9151C128 29.4706 126.864 29.7484 125.525 29.7484Z" fill="black"/>
<path d="M103.767 21.4158V1.11538H106.608V5.05426L105.964 4.90276C106.469 3.5898 107.29 2.55458 108.426 1.79711C109.587 1.03963 110.926 0.660889 112.441 0.660889C113.88 0.660889 115.168 0.989129 116.304 1.64561C117.466 2.30209 118.375 3.21106 119.031 4.37253C119.713 5.50874 120.054 6.79645 120.054 8.23566V21.4158H117.213V9.334C117.213 8.09679 116.986 7.04895 116.531 6.19047C116.102 5.332 115.484 4.67552 114.676 4.22103C113.893 3.7413 112.984 3.50143 111.948 3.50143C110.913 3.50143 109.991 3.7413 109.183 4.22103C108.375 4.67552 107.744 5.34462 107.29 6.22835C106.835 7.08682 106.608 8.12204 106.608 9.334V21.4158H103.767Z" fill="black"/>
<path d="M87.9618 21.8703C86.674 21.8703 85.5251 21.6304 84.5151 21.1507C83.505 20.6457 82.7096 19.9639 82.1289 19.1055C81.5481 18.247 81.2577 17.2623 81.2577 16.1513C81.2577 15.0908 81.485 14.1314 81.9395 13.2729C82.394 12.3892 83.101 11.6443 84.0606 11.0383C85.0201 10.4323 86.2447 10.0031 87.7346 9.75062L95.6886 8.42503V11.0005L88.4163 12.2124C86.9518 12.4649 85.8912 12.932 85.2347 13.6138C84.6034 14.2955 84.2878 15.1035 84.2878 16.0377C84.2878 16.9467 84.6413 17.7168 85.3483 18.348C86.0806 18.9792 87.0149 19.2948 88.1512 19.2948C89.54 19.2948 90.752 19.0045 91.7873 18.4237C92.8226 17.8178 93.6306 17.0098 94.2114 15.9998C94.7922 14.9898 95.0826 13.8662 95.0826 12.629V7.47819C95.0826 6.26622 94.6407 5.2815 93.7569 4.52402C92.8731 3.76655 91.7242 3.38781 90.3101 3.38781C89.0728 3.38781 87.9871 3.70342 87.0528 4.33465C86.1185 4.94064 85.4241 5.73599 84.9696 6.72071L82.394 5.31937C82.7728 4.4609 83.3662 3.67817 84.1742 2.9712C85.0075 2.26422 85.9544 1.70873 87.0149 1.30475C88.0754 0.875508 89.1739 0.660889 90.3101 0.660889C91.7999 0.660889 93.113 0.951256 94.2493 1.53199C95.4108 2.11272 96.3072 2.9207 96.9385 3.95591C97.595 4.96588 97.9233 6.13997 97.9233 7.47819V21.4158H95.0826V17.3633L95.4992 17.7799C95.1457 18.5374 94.5902 19.2317 93.8326 19.8629C93.1004 20.4689 92.2292 20.9613 91.2192 21.34C90.2344 21.6935 89.1486 21.8703 87.9618 21.8703Z" fill="black"/>
<path d="M47.692 21.416V1.11562H50.5327V4.97875L50.0782 4.41065C50.6337 3.22393 51.4544 2.30233 52.5401 1.64585C53.6512 0.989374 54.8632 0.661133 56.1763 0.661133C57.7418 0.661133 59.1559 1.103 60.4184 1.98672C61.681 2.87044 62.5774 4.01928 63.1076 5.43324L62.3122 5.47111C62.8172 3.90566 63.6884 2.71895 64.9257 1.91097C66.1882 1.07775 67.577 0.661133 69.0921 0.661133C70.4556 0.661133 71.7056 0.989374 72.8418 1.64585C74.0034 2.30233 74.925 3.21131 75.6068 4.37277C76.3138 5.50899 76.6674 6.7967 76.6674 8.23591V21.416H73.8266V9.33425C73.8266 8.09704 73.5994 7.04919 73.1449 6.19072C72.7156 5.33224 72.1222 4.67576 71.3647 4.22128C70.6071 3.74154 69.736 3.50167 68.7512 3.50167C67.7917 3.50167 66.9205 3.74154 66.1377 4.22128C65.355 4.67576 64.7363 5.34487 64.2818 6.22859C63.8273 7.08707 63.6 8.12229 63.6 9.33425V21.416H60.7593V9.33425C60.7593 8.09704 60.532 7.04919 60.0775 6.19072C59.6483 5.33224 59.0549 4.67576 58.2973 4.22128C57.5398 3.74154 56.6687 3.50167 55.6839 3.50167C54.6991 3.50167 53.8153 3.74154 53.0325 4.22128C52.275 4.67576 51.669 5.34487 51.2145 6.22859C50.76 7.08707 50.5327 8.12229 50.5327 9.33425V21.416H47.692Z" fill="black"/>
<path d="M44.1964 19.7234V21.2215H0V19.7234H44.1964Z" fill="black"/>
<path d="M37.7777 9.92582L38.1655 11.3729L2.00815 21.0606L1.62039 19.6135L37.7777 9.92582Z" fill="black"/>
<path d="M29.4782 3.31229L30.2273 4.60967L2.32792 20.7163L1.57883 19.4189L29.4782 3.31229Z" fill="black"/>
<path d="M20.5091 0.0618995L21.5685 1.12121L1.91841 20.77L0.859039 19.7107L20.5091 0.0618995Z" fill="black"/>
<path d="M11.9933 -1.08652e-06L13.2908 0.749041L1.79954 20.6511L0.502075 19.9021L11.9933 -1.08652e-06Z" fill="black"/>
<path d="M4.90377 2.62311L6.3509 3.01084L1.64168 20.5847L0.19455 20.197L4.90377 2.62311Z" fill="black"/>
<path d="M-6.26481e-07 6.86353L1.49818 6.86353L1.49818 21.1948L0 21.1948L-6.26481e-07 6.86353Z" fill="black"/>
</svg>
