<svg width="215" height="51" viewBox="0 0 215 51" fill="none" xmlns="http://www.w3.org/2000/svg">
<path d="M27.3321 21.168L32.2934 13.7271C33.914 11.3032 35.5175 8.92562 37.2602 6.58534C38.6769 4.68259 44.5848 -2.52483 47.1889 0.918945L47.3333 1.30159C47.5531 2.1461 47.563 2.73446 47.3334 3.59908C47.285 3.7425 47.1294 4.23754 47.0621 4.33713C46.7824 5.30662 46.0717 6.54783 45.4921 7.41754C41.6172 13.2321 35.3373 17.7332 29.3617 21.2413C29.1931 21.3403 28.9021 21.4962 28.7309 21.5661C27.938 22.8306 26.9559 24.0342 26.0866 25.2501C23.6305 28.6856 20.887 31.8515 18.283 35.15C22.776 35.1443 28.9276 35.3134 33.0243 33.5379C33.0243 32.594 33.1294 32.1748 33.6025 31.339C34.3926 29.9433 36.5019 27.8262 38.199 27.8228C38.7126 27.822 39.2051 28.0271 39.5663 28.3921C41.4458 30.31 35.5661 32.9213 34.8454 33.6963C35.5092 35.135 40.9257 32.8361 41.9656 32.3225C43.1093 31.7574 44.336 30.82 45.3963 30.0976C45.9273 29.7358 46.2611 29.1566 46.9352 29.098C47.2622 29.2251 47.158 29.141 47.3511 29.4345C47.4467 30.018 46.2441 32.3807 45.9618 33.2343C46.9322 32.5286 51.3488 29.2721 51.5323 28.345C51.5782 28.1132 51.6828 27.8799 51.8903 27.7516C52.154 27.5886 52.32 27.6154 52.5984 27.6821C53.1457 28.2171 52.6122 28.7271 53.0746 29.1608C53.9605 29.9916 55.9295 29.1516 56.7832 29.3989C57.3551 30.0495 55.1406 31.1187 55.4983 32.2736C56.9569 32.7024 61.3379 29.2258 62.3799 28.2383C62.7119 27.9237 63.2766 27.3511 63.733 27.3921C64.4814 27.9298 62.1422 32.0483 61.7069 32.9858C66.7223 30.8905 75.3312 27.5318 80.8171 27.818L81.3457 27.9661L80.8191 28.1125C79.658 28.3604 78.483 28.5087 77.2961 28.8217C72.0087 30.217 65.7482 32.2696 60.8619 34.714C58.0888 40.1352 54.5161 48.4295 48.5413 50.6776C45.096 51.9739 43.543 49.1476 45.4043 46.0311C48.4753 40.8889 54.313 36.4073 59.6755 33.9913C60.253 32.8176 60.9105 31.3998 61.5242 30.2637C60.191 31.1459 57.0057 33.6021 55.2724 33.2632C53.5206 32.9207 54.4509 31.2882 55.2218 30.3802C54.1043 30.4278 52.9452 30.5625 52.0535 29.7403C51.9446 29.639 51.8389 29.5344 51.7365 29.4267C50.634 30.4241 46.5062 34.6278 45.1833 34.575C45.041 34.5694 44.8448 34.5022 44.7523 34.3935C44.5494 34.1554 44.5399 33.8355 44.5694 33.537C44.6568 32.653 45.1061 31.8062 45.4605 31.0041C42.6544 32.8522 36.3845 37.3796 33.2937 34.2875C31.7983 34.8132 30.2368 35.4374 28.689 35.7551C24.9138 36.5298 20.9261 36.3397 17.072 36.5367C13.5443 40.738 9.48019 45.3339 4.82111 48.2636C2.3173 49.8381 -0.750638 49.656 0.165795 45.861L0.297152 45.4325C0.641631 44.2149 1.7408 42.4608 2.57863 41.5153C6.55944 37.0225 10.6803 35.8404 16.3441 35.3467C19.6751 31.1483 22.7572 27.3588 25.9868 23.01L23.5342 24.1775C18.1229 26.7028 11.5223 29.222 5.67934 27.0959C7.31621 27.0067 8.8239 27.3 10.6587 27.0865C16.5605 26.4 22.0992 23.7792 27.3321 21.168Z" fill="#070707"/>
<path d="M30.098 19.6496C32.9165 15.4844 35.6432 11.2436 38.5719 7.15672C39.5817 5.74762 44.2438 -0.208912 46.289 1.34368L46.4921 1.8414C46.5647 2.48061 46.5463 2.65905 46.4605 3.3003L46.2943 3.85434C44.2079 10.2047 35.6931 16.2792 30.098 19.6496Z" fill="#FBFBFB"/>
<path d="M58.5637 35.8544L58.6254 35.8974C58.6111 35.9365 58.5962 35.9753 58.5806 36.0139C58.3534 36.5789 57.9134 37.2452 57.6405 37.8068C56.1232 40.9296 50.2757 51.6701 45.8895 49.8436C45.6259 49.5286 45.5212 49.1522 45.3809 48.7641C46.5365 43.3171 53.8774 38.2133 58.5637 35.8544Z" fill="#FBFBFB"/>
<path d="M1.16988 45.7598C3.21151 40.0574 9.31928 36.8843 15.134 36.7034C12.7802 39.2908 5.09981 48.0386 2.01761 48.2341C1.73946 48.2517 1.48516 48.1936 1.27441 48.0038C1.01704 47.7721 0.947058 47.4535 0.93706 47.1206C0.928547 46.84 0.964974 46.5533 0.994869 46.2745L1.16988 45.7598Z" fill="#FBFBFB"/>
<path d="M38.1807 28.8971C38.4256 28.8833 38.4568 28.8853 38.6823 28.9805C39.2035 30.137 35.941 32.1313 35.0606 32.6298L34.7875 32.7078L34.6524 32.6157C34.5741 31.4025 37.0613 29.3384 38.1807 28.8971Z" fill="#FBFBFB"/>
<path d="M82.9672 27.8342C83.4393 27.2392 84.0996 26.0716 84.5401 25.3872C85.3547 24.1306 86.2555 22.9321 87.2355 21.8003C92.1671 16.1318 102.908 8.19829 110.404 7.34749C111.283 7.24771 112.374 7.26008 113.097 7.84778C113.451 8.13405 113.642 8.52961 113.682 8.97684C113.94 11.8074 108.428 17.1128 106.732 19.5613C106.042 20.5589 105.802 21.7949 104.997 22.7403C104.279 23.5828 101.332 26.2485 100.34 26.3193C100.134 26.334 100.03 26.2944 99.8842 26.1548C99.7615 26.0363 99.7298 25.9158 99.6942 25.7538C99.7942 24.2643 106.167 18.8964 107.374 17.345C108.431 15.9854 113.297 10.388 112.44 8.75896C111.532 7.8361 108.372 8.83924 107.251 9.25945C101.217 11.5499 95.4466 15.508 90.8337 20.0343C87.1306 23.6681 82.5603 29.8887 82.3346 35.3091C82.1673 39.338 85.72 40.7498 89.2093 40.605C97.0799 40.2782 104.394 36.0697 110.799 31.8022C111.479 29.6097 115.318 26.9902 117.64 27.626C118.348 27.82 118.493 28.6849 117.97 28.9898C117.115 28.5569 117.01 28.5495 116.05 28.7763C115.162 28.9861 112.206 31.1295 112.291 32.0653C113.722 32.7243 117.186 29.0954 118.02 29.1691C118.268 29.4277 118.227 29.3125 118.244 29.6371C117.85 30.4472 117.05 30.7074 117.019 31.547C117.572 32.3021 120.5 31.0385 121.323 30.7542C122.252 30.4335 125.147 27.4355 126.008 28.46C126.148 28.9632 125.98 29.3327 125.801 29.8081C126.64 29.2862 127.996 28.2828 128.969 28.4543C129.681 28.9204 129.394 29.527 129.191 30.2236C129.974 29.6904 131.573 28.429 132.448 28.5705C133.443 29.3293 131.384 31.534 134.19 31.2339C137.49 30.8807 138.96 27.6035 142.3 27.641C142.886 27.6475 143.481 27.7004 143.709 28.2789C143.697 28.371 143.534 29.0578 143.465 29.0036C144.593 29.889 141.735 30.9593 142.407 31.9576C143.314 32.276 145.539 31.3196 146.436 30.9491C146.918 30.7504 147.983 30.0471 148.267 29.6398C148.983 28.6106 148.446 28.1827 149.84 27.6832C150.155 27.57 150.382 27.4135 150.794 27.4541C151.33 27.9248 150.905 28.6881 150.502 29.109C150.457 29.1548 150.414 29.2 150.368 29.2448C150.742 29.4023 151.152 29.5253 151.39 29.8417C151.68 30.872 150.548 31.2513 150.412 32.0498C151.011 33.0576 154.808 31.578 155.7 31.2003C156.828 29.5086 159.177 28.0307 161.166 27.5411C161.939 27.3506 163.469 27.4461 163.647 28.4961C163.799 29.3867 161.982 30.8674 163.199 31.8169C164.135 32.5588 167.008 32.6024 168.204 32.5511C171.845 32.395 175.607 31.8404 179.23 31.3879C184.871 30.6302 190.532 30.0393 196.207 29.6159C198.815 29.4352 213.802 28.6928 214.546 31.3132C214.255 32.2596 212.761 32.3169 212.056 32.5922L212.114 32.3745C212.716 32.1969 213.401 32.0304 213.856 31.5897C214.012 31.1007 213.561 30.9452 213.13 30.8419C210.6 30.2364 207.936 30.2648 205.348 30.2613C198.161 30.4039 190.987 31.213 183.856 32.0816C178.031 32.791 172.092 33.9105 166.214 33.7174C164.31 33.6547 161.7 33.2505 161.283 31.0265C160.02 31.7595 157.734 33.4152 156.238 33.0226C155.619 32.8598 155.742 32.3129 155.377 32.0926C155.05 31.8954 150.201 34.5257 149.226 32.6245C149.07 32.3199 149.042 31.9827 149.158 31.6594C149.336 31.1666 149.796 30.7332 150.159 30.3714L149.158 30.116C147.434 31.3421 144.255 33.23 142.009 33.0125C141.276 32.9417 141.403 32.321 140.878 32.0262C139.542 32.251 138.178 33.9831 136.549 32.8617C136.075 32.5353 136.159 32.1856 136.196 31.6873C135.454 31.3919 132.526 33.5979 131.299 31.1989C131.109 30.8269 131.378 30.4266 131.134 30.2899C130.171 30.5399 127.534 33.6976 126.979 32.121C127.072 31.1964 127.731 30.5287 128.087 29.6827C126.627 30.3655 125.498 31.3939 124.26 32.4057C123.779 32.7989 123.327 33.088 122.859 32.512C122.711 31.877 124.059 30.3707 124.42 29.7137C122.355 30.7985 119.337 32.9326 116.944 32.8481C116.473 32.8316 115.897 31.6076 115.378 32.0247C113.95 32.8354 112.161 34.3723 110.8 32.5398C104.407 37.1479 98.0559 40.9511 90.029 41.7253C90.218 41.9248 92.1463 41.9819 92.5245 41.9731C105.469 41.6719 118.231 37.0188 131.15 36.4036L131.119 36.6029C130.688 36.6244 130.262 36.6818 129.834 36.7381C121.874 37.7888 114.065 39.7032 106.183 41.1752C101.13 42.119 95.8435 43.2145 90.6902 42.8494C87.3177 42.6104 82.099 41.0839 80.9874 37.4763C79.9926 34.2504 81.4437 30.9448 82.88 28.1109L82.9672 27.8342Z" fill="#070707"/>
<path d="M142.27 28.7077C142.502 28.6673 142.937 28.698 143.128 28.8485L143.089 29.0205C142.211 30.0427 139.903 31.3812 138.627 31.9007C138.296 32.0003 138.076 32.0983 137.739 32.0053L137.667 31.8652C138.026 30.5226 140.98 29.0513 142.27 28.7077Z" fill="#FBFBFB"/>
<path d="M161.681 28.607C161.962 28.5832 162.329 28.501 162.481 28.7668C162.01 29.9076 159.077 31.2874 157.932 31.7247C157.681 31.7951 157.448 31.8922 157.207 31.7991C156.991 30.7898 160.806 28.9278 161.681 28.607Z" fill="#FBFBFB"/>
<path d="M118.697 20.3773C119.082 20.4093 119.426 20.5289 119.564 20.9195C119.801 21.5932 120.631 23.5158 120.41 24.1418L120.246 24.2012C119.451 23.8465 118.934 22.5456 118.576 21.788C117.806 22.4217 117.051 22.9447 116.236 23.5152C115.659 23.8999 114.161 25.1171 113.508 24.7701C113.482 24.66 113.428 24.502 113.486 24.417C114.034 23.608 118.014 20.7079 118.697 20.3773Z" fill="#070707"/>
<path d="M80.8171 27.8178C81.318 27.8191 82.5217 27.7898 82.9672 27.8336L82.88 28.1103C82.497 28.0106 81.3022 28.1013 80.8191 28.1123L81.3457 27.9659L80.8171 27.8178Z" fill="#888888"/>
<path d="M131.15 36.4036C131.919 36.3537 132.435 36.3031 133.204 36.3954C132.789 36.5401 131.636 36.5716 131.119 36.6029L131.15 36.4036Z" fill="#666667"/>
<path d="M212.056 32.5918C211.748 32.669 211.467 32.7684 211.157 32.696C211.326 32.4968 211.832 32.4353 212.114 32.3741L212.056 32.5918Z" fill="#888888"/>
</svg>
