<svg width="150" height="20" viewBox="0 0 150 20" fill="none" xmlns="http://www.w3.org/2000/svg">
<path d="M144.35 12.8315C145.658 12.8315 146.409 12.3631 146.604 11.4263C146.624 11.2897 146.634 11.1629 146.634 11.0458C146.634 10.0505 146.009 9.22103 144.76 8.55749C144.487 8.40136 144.048 8.19644 143.443 7.94273C141.979 7.29871 141.013 6.70347 140.545 6.15703C140.037 5.57155 139.783 4.87873 139.783 4.07858C139.783 2.41972 140.691 1.29756 142.506 0.71208C143.267 0.458373 144.116 0.331519 145.053 0.331519C146.575 0.331519 147.765 0.604743 148.624 1.15119C148.624 0.565712 148.8 0.243698 149.151 0.18515C149.229 0.165634 149.307 0.155876 149.385 0.155876V3.81511H148.448C148.37 2.03916 147.404 1.14143 145.55 1.12192C144.301 1.12192 143.53 1.53175 143.238 2.35142C143.179 2.54658 143.15 2.74174 143.15 2.9369C143.15 3.77608 143.735 4.48841 144.906 5.07389C145.141 5.2105 145.531 5.3959 146.077 5.6301C147.6 6.31315 148.614 6.93766 149.122 7.50363C149.707 8.16717 150 8.95756 150 9.87481C150 11.5727 149.122 12.7144 147.365 13.2999C146.643 13.5341 145.833 13.6511 144.936 13.6511C143.218 13.6511 141.774 13.3486 140.603 12.7437C140.603 13.2511 140.476 13.5438 140.223 13.6219C140.105 13.6414 139.969 13.6511 139.813 13.6511V9.20151H140.808C140.847 11.602 142.028 12.812 144.35 12.8315Z" fill="black"/>
<path d="M128.074 18.0426C128.269 18.0426 128.474 18.0036 128.689 17.9255C129.547 17.6133 130.445 16.296 131.382 13.9736L125.673 1.50288H124.444V0.771033H131.323V1.50288H129.538L133.08 9.6703L136.271 1.50288H134.075V0.771033H138.612C138.612 0.868613 138.603 0.966194 138.583 1.06377C138.544 1.35651 138.31 1.50288 137.881 1.50288C137.568 1.54191 137.246 1.82489 136.915 2.35183L132.523 13.7394C132.153 14.7152 131.762 15.5446 131.353 16.2277C130.279 18.1207 128.923 19.0672 127.283 19.0672C126.561 19.0672 125.927 18.9209 125.381 18.6281C124.6 18.2183 124.21 17.6914 124.21 17.0473C124.21 16.9107 124.229 16.7643 124.268 16.6082C124.463 16.0032 124.912 15.7007 125.615 15.7007C125.947 15.7007 126.239 15.7885 126.493 15.9642C126.708 16.1398 126.952 16.5692 127.225 17.2522C127.44 17.7792 127.723 18.0426 128.074 18.0426Z" fill="black"/>
<path d="M121.195 13.6508C119.633 13.5532 118.648 12.6652 118.238 10.9869C118.14 11.2601 118.013 11.5236 117.857 11.7773C117.077 13.0263 115.857 13.6508 114.198 13.6508C113.652 13.6508 113.154 13.5825 112.705 13.4459C111.183 12.958 110.422 11.8456 110.422 10.1087C110.441 7.55207 112.959 6.22499 117.974 6.12741V4.2246C117.974 3.65864 117.935 3.17074 117.857 2.76091C117.662 1.6485 117.106 1.0923 116.189 1.0923C115.916 1.0923 115.672 1.14108 115.457 1.23866C115.125 1.43382 114.852 1.92172 114.637 2.70236C114.559 2.97558 114.501 3.17074 114.462 3.28784C114.169 4.10751 113.603 4.51734 112.764 4.51734C112.569 4.51734 112.383 4.48807 112.207 4.42952C111.485 4.23436 111.124 3.75622 111.124 2.9951C111.124 2.66333 111.212 2.35107 111.388 2.05833C112.071 0.906893 113.739 0.331173 116.394 0.331173C117.077 0.331173 117.711 0.399478 118.296 0.53609C120.56 1.10205 121.692 2.60478 121.692 5.04427V11.1625C121.692 12.0993 121.907 12.5872 122.336 12.6262C122.902 12.6067 123.244 11.9236 123.361 10.577L124.122 10.6063C124.063 11.2113 123.976 11.709 123.859 12.0993C123.507 13.1336 122.619 13.6508 121.195 13.6508ZM115.72 12.392C115.857 12.392 116.013 12.3627 116.189 12.3042C117.008 11.9919 117.604 11.1528 117.974 9.78664V6.94708C117.096 6.98611 116.374 7.09344 115.808 7.26909C114.754 7.65941 114.227 8.49859 114.227 9.78664C114.247 11.4845 114.745 12.353 115.72 12.392Z" fill="black"/>
<path d="M95.9605 1.53216H94.204L97.0436 10.0509L98.9757 3.69842L97.9804 0.771033H103.659V1.53216H101.903L104.772 10.0801L107.494 1.53216H105.679V0.771033H109.836C109.836 0.868613 109.827 0.966194 109.807 1.06377C109.787 1.37603 109.602 1.53216 109.251 1.53216C108.86 1.57119 108.49 1.85417 108.138 2.3811L104.479 13.5052H103.513C103.123 13.5052 102.82 13.4369 102.606 13.3003C102.352 13.1246 102.03 12.4806 101.64 11.3682L99.4733 5.04502L96.7509 13.5052H95.7848C95.4921 13.5052 95.2481 13.4662 95.053 13.3881C94.6431 13.2124 94.2333 12.5391 93.8235 11.3682L90.4277 1.53216H89.1982V0.771033H95.9605V1.53216Z" fill="black"/>
<path d="M78.128 18.5173C77.8766 18.5173 77.6172 18.4937 77.3501 18.4465C77.0986 18.4151 76.8471 18.3522 76.5957 18.2579V16.6077C76.7528 16.6234 76.9493 16.647 77.185 16.6785C77.4365 16.7256 77.688 16.7492 77.9394 16.7492C78.7095 16.7492 79.2989 16.5842 79.7075 16.2541C80.1161 15.9398 80.5169 15.3269 80.9098 14.4153L81.7113 12.5294L81.6642 14.0853L76.3128 0.694987H78.2223L82.6072 11.7514H82.1121L86.4734 0.694987H88.4301L82.6543 14.9339C82.4029 15.5469 82.0807 16.1284 81.6878 16.6785C81.3106 17.2285 80.8312 17.6686 80.2497 17.9986C79.6682 18.3444 78.961 18.5173 78.128 18.5173Z" fill="black"/>
<path d="M64.5854 13.3309V0.695037H66.3535V3.14678L65.9527 3.05248C66.2671 2.23523 66.7778 1.59087 67.4851 1.11938C68.208 0.647888 69.041 0.412143 69.984 0.412143C70.8798 0.412143 71.6813 0.616456 72.3886 1.02508C73.1115 1.4337 73.6773 1.99949 74.0859 2.72244C74.5103 3.42967 74.7224 4.2312 74.7224 5.12703V13.3309H72.9543V5.81069C72.9543 5.04059 72.8129 4.38837 72.53 3.85401C72.2628 3.31966 71.8778 2.91103 71.3749 2.62814C70.8877 2.32953 70.3219 2.18023 69.6775 2.18023C69.0331 2.18023 68.4595 2.32953 67.9566 2.62814C67.4536 2.91103 67.0607 3.32752 66.7778 3.87759C66.495 4.41194 66.3535 5.05631 66.3535 5.81069V13.3309H64.5854Z" fill="black"/>
<path d="M54.7482 13.6138C53.9467 13.6138 53.2316 13.4645 52.603 13.1659C51.9743 12.8516 51.4792 12.4273 51.1178 11.8929C50.7563 11.3585 50.5756 10.7456 50.5756 10.0541C50.5756 9.39401 50.717 8.79679 50.9999 8.26243C51.2828 7.71236 51.7228 7.24873 52.3201 6.87154C52.9173 6.49435 53.6795 6.22717 54.6068 6.07001L59.5574 5.2449V6.84797L55.0311 7.60235C54.1196 7.75951 53.4595 8.05026 53.0509 8.4746C52.658 8.89894 52.4615 9.40186 52.4615 9.98337C52.4615 10.5492 52.6815 11.0285 53.1216 11.4214C53.5774 11.8143 54.1589 12.0108 54.8661 12.0108C55.7305 12.0108 56.4849 11.83 57.1292 11.4686C57.7736 11.0914 58.2765 10.5884 58.638 9.95979C58.9995 9.33114 59.1802 8.63177 59.1802 7.86167V4.65554C59.1802 3.90116 58.9052 3.28823 58.3551 2.81674C57.805 2.34525 57.09 2.1095 56.2098 2.1095C55.4397 2.1095 54.7639 2.30596 54.1824 2.69886C53.6009 3.07606 53.1687 3.57112 52.8858 4.18405L51.2828 3.3118C51.5185 2.77745 51.8879 2.29024 52.3908 1.85018C52.9094 1.41013 53.4988 1.06437 54.1589 0.812909C54.819 0.545732 55.5026 0.412143 56.2098 0.412143C57.1371 0.412143 57.9544 0.592881 58.6616 0.954356C59.3845 1.31583 59.9425 1.81875 60.3354 2.46312C60.744 3.09177 60.9483 3.82258 60.9483 4.65554V13.3309H59.1802V10.8085L59.4395 11.0678C59.2195 11.5393 58.8738 11.9715 58.4023 12.3644C57.9465 12.7416 57.4043 13.048 56.7756 13.2838C56.1627 13.5038 55.4869 13.6138 54.7482 13.6138Z" fill="black"/>
<path d="M29.684 13.3309V0.695037H31.4521V3.09963L31.1692 2.74601C31.515 2.00735 32.0257 1.4337 32.7015 1.02508C33.3931 0.616456 34.1474 0.412143 34.9647 0.412143C35.9391 0.412143 36.8192 0.687179 37.605 1.23725C38.3908 1.78732 38.9488 2.50241 39.2788 3.38252L38.7837 3.4061C39.0981 2.43169 39.6403 1.69302 40.4104 1.1901C41.1962 0.671462 42.0606 0.412143 43.0036 0.412143C43.8522 0.412143 44.6302 0.616456 45.3374 1.02508C46.0604 1.4337 46.634 1.99949 47.0584 2.72244C47.4984 3.42967 47.7185 4.2312 47.7185 5.12703V13.3309H45.9504V5.81069C45.9504 5.04059 45.8089 4.38837 45.526 3.85401C45.2589 3.31966 44.8895 2.91103 44.418 2.62814C43.9465 2.32953 43.4043 2.18023 42.7914 2.18023C42.1942 2.18023 41.652 2.32953 41.1648 2.62814C40.6776 2.91103 40.2925 3.32752 40.0096 3.87759C39.7267 4.41194 39.5853 5.05631 39.5853 5.81069V13.3309H37.8172V5.81069C37.8172 5.04059 37.6757 4.38837 37.3929 3.85401C37.1257 3.31966 36.7563 2.91103 36.2849 2.62814C35.8134 2.32953 35.2712 2.18023 34.6582 2.18023C34.0453 2.18023 33.4952 2.32953 33.008 2.62814C32.5365 2.91103 32.1593 3.32752 31.8764 3.87759C31.5935 4.41194 31.4521 5.05631 31.4521 5.81069V13.3309H29.684Z" fill="black"/>
<path d="M27.5081 12.2772V13.2097H0V12.2772H27.5081Z" fill="black"/>
<path d="M23.513 6.17724L23.7544 7.07794L1.24984 13.108L1.0085 12.2073L23.513 6.17724Z" fill="black"/>
<path d="M18.3474 2.06134L18.8136 2.86888L1.44893 12.8944L0.982692 12.0869L18.3474 2.06134Z" fill="black"/>
<path d="M12.7649 0.0382948L13.4243 0.697656L1.19399 12.928L0.534633 12.2686L12.7649 0.0382948Z" fill="black"/>
<path d="M7.46462 1.25193e-06L8.27217 0.46624L1.11997 12.8542L0.31242 12.388L7.46462 1.25193e-06Z" fill="black"/>
<path d="M3.05204 1.632L3.95274 1.87334L1.02169 12.8121L0.120991 12.5708L3.05204 1.632Z" fill="black"/>
<path d="M-3.89925e-07 4.27304L0.932477 4.27304L0.932477 13.1935L0 13.1935L-3.89925e-07 4.27304Z" fill="black"/>
</svg>
