<svg width="147" height="46" viewBox="0 0 147 46" fill="none" xmlns="http://www.w3.org/2000/svg">
<path d="M127.374 43.82L126.942 37.9568C126.88 36.7224 126.201 36.1053 124.967 36.1053H124.473C123.239 36.1053 122.56 36.7224 122.498 37.9568L122.066 43.82C122.004 45.0544 121.325 45.6715 120.091 45.6715H103.983C102.748 45.6715 102.254 45.1161 102.501 43.8817L110.833 4.25882C111.08 3.02446 111.821 2.46899 113.055 2.46899H136.384C137.619 2.46899 138.359 3.02446 138.606 4.25882L146.938 43.8817C147.185 45.1161 146.691 45.6715 145.457 45.6715H129.349C128.114 45.6715 127.435 45.0544 127.374 43.82ZM126.201 28.3288L125.707 21.293C125.646 20.6758 125.337 20.3672 124.72 20.3672C124.103 20.3672 123.794 20.6758 123.732 21.293L123.239 28.3288C123.177 29.378 123.609 29.9335 124.72 29.9335C125.769 29.9335 126.263 29.378 126.201 28.3288Z" fill="#FF00BF"/>
<path d="M80.6321 4.32053L83.0391 25.3046C83.2242 26.7241 83.5945 27.1562 84.4586 27.1562C85.2609 27.1562 85.6929 26.7241 85.8781 25.3046L88.2851 4.32053C88.4085 3.08617 89.0874 2.46899 90.3218 2.46899H105.196C106.43 2.46899 106.986 3.08617 106.739 4.32053L99.5177 43.82C99.2709 45.0544 98.592 45.6715 97.3576 45.6715H71.5595C70.3252 45.6715 69.6463 45.0544 69.3994 43.82L62.1784 4.32053C61.9315 3.08617 62.487 2.46899 63.7214 2.46899H78.5954C79.8297 2.46899 80.5086 3.08617 80.6321 4.32053Z" fill="#FF00BF"/>
<path d="M45.1867 15.0592L47.1617 15.306C47.9023 15.4295 48.3343 15.2443 48.5195 14.6271C48.7046 13.9482 48.396 13.5779 47.8406 13.3928C44.7547 12.2819 42.9648 10.1835 42.9648 7.221C42.9648 3.27105 46.3593 0 51.9757 0C57.592 0 60.9865 3.27105 60.9865 7.221C60.9865 10.1835 59.1967 12.2819 56.1108 13.3928C55.5553 13.5779 55.2467 14.01 55.4319 14.6271C55.617 15.1826 55.9873 15.4295 56.7897 15.306L58.7646 15.0592C59.999 14.874 60.6162 15.4295 60.6162 16.6638V43.8197C60.6162 45.0541 59.999 45.6713 58.7646 45.6713H45.1867C43.9523 45.6713 43.3352 45.0541 43.3352 43.8197V16.6638C43.3352 15.4295 43.9523 14.874 45.1867 15.0592Z" fill="#FF00BF"/>
<path d="M15.8615 36.4756L16.4787 43.82C16.6021 45.0544 16.0467 45.6715 14.8123 45.6715H1.85154C0.617179 45.6715 0 45.0544 0 43.82V4.32053C0 3.08617 0.617179 2.46899 1.85154 2.46899H11.6647C12.899 2.46899 13.8248 3.02446 14.6271 3.95022L21.9099 12.6525C22.4653 13.2696 22.8974 13.8868 23.7614 13.8868C24.7489 13.8868 25.0575 13.1462 24.9958 12.3439L24.3169 4.32053C24.1934 3.08617 24.8106 2.46899 26.045 2.46899H39.0057C40.2401 2.46899 40.8573 3.08617 40.8573 4.32053V43.82C40.8573 45.0544 40.2401 45.6715 39.0057 45.6715H29.1926C27.9582 45.6715 27.0325 45.1778 26.1684 44.252L19.0091 36.1053C18.5154 35.4881 18.0216 34.9326 17.1576 34.9326C16.1701 34.9326 15.7998 35.6732 15.8615 36.4756Z" fill="#FF00BF"/>
</svg>
