<svg width="169" height="34" viewBox="0 0 169 34" fill="none" xmlns="http://www.w3.org/2000/svg">
<path d="M18.7287 0H14.5941V14.594H18.7287V0Z" fill="white"/>
<path d="M33.3273 18.7332V14.5985L18.7332 14.5985V18.7332H33.3273Z" fill="white"/>
<path d="M14.5941 33.3223H18.7288L18.7288 18.7282H14.5941L14.5941 33.3223Z" fill="white"/>
<path d="M0 14.5933L0 18.728H14.594V14.5933H0Z" fill="white"/>
<path d="M26.9845 29.9051L29.9082 26.9814L22.5092 19.5824L19.5855 22.5061L26.9845 29.9051Z" fill="white"/>
<path d="M3.41991 26.9831L6.34357 29.9067L13.7426 22.5077L10.8189 19.584L3.41991 26.9831Z" fill="white"/>
<path d="M6.34199 3.41716L3.41833 6.34082L10.8174 13.7399L13.741 10.8162L6.34199 3.41716Z" fill="white"/>
<path d="M29.9035 6.33919L26.9798 3.41553L19.5808 10.8146L22.5044 13.7382L29.9035 6.33919Z" fill="white"/>
<path d="M42.4529 5.55737H60.749V11.3914H54.915V27.6357H48.1353V11.3914H42.4485V5.55737H42.4529Z" fill="white"/>
<path d="M69.344 27.751C68.617 27.644 67.8765 27.4611 67.1272 27.2069C66.5251 27.0284 65.9006 26.7475 65.2539 26.3639C64.5938 25.9714 64.0719 25.5967 63.6883 25.2399C63.2156 24.8251 62.8007 24.3746 62.4484 23.8795C62.0648 23.4067 61.7392 22.8848 61.4716 22.3139C61.146 21.5958 60.9141 20.9982 60.7758 20.5254C60.5974 19.9232 60.4636 19.2899 60.3788 18.6208C60.2807 17.9116 60.2316 17.2337 60.2316 16.5825C60.2316 16.0294 60.2807 15.4228 60.3788 14.7493C60.4457 14.2676 60.5706 13.6922 60.749 13.0232C60.8873 12.4835 61.0969 11.9349 61.3824 11.3863C61.5786 10.9447 61.8686 10.4496 62.2521 9.9099C62.6268 9.39697 62.9925 8.9554 63.3449 8.58074C63.8177 8.10795 64.2503 7.73329 64.6428 7.45675C65.1959 7.04194 65.6955 6.72972 66.1504 6.51117C66.6321 6.27477 67.2075 6.04284 67.8765 5.81537C68.5456 5.61911 69.1789 5.48085 69.7811 5.40056C70.5884 5.29351 71.2887 5.23999 71.8774 5.23999C72.6669 5.23999 73.4653 5.30243 74.286 5.43178C74.9149 5.52991 75.6464 5.70386 76.4715 5.94917C77.2208 6.21679 77.8453 6.49333 78.3448 6.79217C78.8087 7.0687 79.3305 7.44337 79.9104 7.91616C80.4233 8.37111 80.8649 8.82159 81.2395 9.27654C81.6722 9.83854 82.0156 10.3693 82.2743 10.8733C82.591 11.5602 82.8319 12.149 82.9969 12.6307C83.2154 13.4068 83.3582 14.0535 83.4251 14.5664C83.5232 15.3068 83.5723 15.9803 83.5723 16.5914C83.5723 17.2917 83.5321 17.8938 83.4563 18.4067C83.3894 18.8974 83.2645 19.4861 83.0861 20.1641C82.9478 20.619 82.7382 21.1543 82.4527 21.7742C82.1182 22.4344 81.8283 22.925 81.583 23.2506C81.2172 23.7724 80.856 24.214 80.4902 24.5798C80.1156 24.9856 79.6829 25.3692 79.1923 25.7305C78.7106 26.065 78.1976 26.3639 77.6579 26.6315C76.9577 26.9749 76.3823 27.2113 75.9318 27.3407C75.2895 27.5458 74.6472 27.693 73.996 27.7822C73.2289 27.8804 72.5108 27.9294 71.8417 27.9294C70.9274 27.9294 70.0933 27.8714 69.3484 27.751H69.344ZM75.5884 20.4986C76.4358 19.4861 76.8596 18.1793 76.8596 16.5869C76.8596 14.9946 76.4447 13.6521 75.6196 12.5994C74.7811 11.5959 73.5456 11.0919 71.9131 11.0919C70.2806 11.0919 69.0897 11.6048 68.2512 12.6262C67.3859 13.6521 66.9533 14.9679 66.9533 16.5825C66.9533 18.1971 67.3547 19.4995 68.162 20.4941C68.9515 21.4977 70.1914 22.0017 71.8819 22.0017C73.5723 22.0017 74.7409 21.4977 75.5884 20.4941V20.4986Z" fill="white"/>
<path d="M91.5382 5.55737V16.0569H92.747L98.755 5.55737H105.856L99.3883 16.262L106.137 27.6313H98.6657L92.7157 16.659H91.5338V27.6313H85.053V5.55737H91.5338H91.5382Z" fill="white"/>
<path d="M111.279 5.55737L114.91 12.9124L118.661 5.55737H125.615L118.113 19.3798V27.6357H111.569V19.411L104.143 5.56183H111.275L111.279 5.55737Z" fill="white"/>
<path d="M132.145 27.751C131.418 27.644 130.677 27.4611 129.928 27.2069C129.326 27.0284 128.701 26.7475 128.055 26.3639C127.394 25.9714 126.873 25.5967 126.489 25.2399C126.016 24.8251 125.601 24.3746 125.249 23.8795C124.865 23.4067 124.54 22.8848 124.272 22.3139C123.947 21.5958 123.715 20.9982 123.576 20.5254C123.398 19.9232 123.264 19.2899 123.179 18.6208C123.081 17.9116 123.032 17.2337 123.032 16.5825C123.032 16.0294 123.081 15.4228 123.179 14.7493C123.246 14.2676 123.371 13.6922 123.55 13.0232C123.688 12.4835 123.898 11.9349 124.183 11.3863C124.379 10.9447 124.669 10.4496 125.053 9.9099C125.427 9.39697 125.793 8.9554 126.146 8.58074C126.618 8.10795 127.051 7.73329 127.444 7.45675C127.997 7.04194 128.496 6.72972 128.951 6.51117C129.433 6.27477 130.008 6.04284 130.677 5.81537C131.346 5.61911 131.98 5.48085 132.582 5.40056C133.389 5.29351 134.089 5.23999 134.678 5.23999C135.468 5.23999 136.266 5.30243 137.087 5.43178C137.716 5.52991 138.447 5.70386 139.272 5.94917C140.021 6.21679 140.646 6.49333 141.145 6.79217C141.609 7.0687 142.131 7.44337 142.711 7.91616C143.224 8.37111 143.666 8.82159 144.04 9.27654C144.473 9.83854 144.816 10.3693 145.075 10.8733C145.392 11.5602 145.633 12.149 145.798 12.6307C146.016 13.4068 146.159 14.0535 146.226 14.5664C146.324 15.3068 146.373 15.9803 146.373 16.5914C146.373 17.2917 146.333 17.8938 146.257 18.4067C146.19 18.8974 146.065 19.4861 145.887 20.1641C145.748 20.619 145.539 21.1543 145.253 21.7742C144.919 22.4344 144.629 22.925 144.384 23.2506C144.018 23.7724 143.657 24.214 143.291 24.5798C142.916 24.9856 142.484 25.3692 141.993 25.7305C141.511 26.065 140.998 26.3639 140.459 26.6315C139.758 26.9749 139.183 27.2113 138.732 27.3407C138.09 27.5458 137.448 27.693 136.797 27.7822C136.03 27.8804 135.311 27.9294 134.642 27.9294C133.728 27.9294 132.894 27.8714 132.149 27.751H132.145ZM138.389 20.4986C139.236 19.4861 139.66 18.1793 139.66 16.5869C139.66 14.9946 139.245 13.6521 138.42 12.5994C137.582 11.5959 136.346 11.0919 134.714 11.0919C133.081 11.0919 131.89 11.6048 131.052 12.6262C130.187 13.6521 129.754 14.9679 129.754 16.5825C129.754 18.1971 130.155 19.4995 130.963 20.4941C131.752 21.4977 132.992 22.0017 134.683 22.0017C136.373 22.0017 137.542 21.4977 138.389 20.4941V20.4986Z" fill="white"/>
<path d="M154.914 5.55737L160.686 21.9177L162.252 26.4226L162.22 21.5787V5.55737H169V27.6313H161.957L156.627 12.3905L154.575 6.5877L154.607 12.7741V27.6268H147.858V5.55737H154.914Z" fill="white"/>
</svg>
